inDegrees=no
num_controls=7
num_derivatives=13
num_iterations=109
num_multipliers=7
num_parameters=0
num_slacks=7
num_states=26
objective=5.307266
objective_accelerations=0.584611
objective_balance=0.055537
objective_effort=0.554222
objective_height=4.020199
objective_ligament=0.092696
solver_duration=1183.124089
status=Solve_Succeeded
success=true
DataType=double
version=3
OpenSimVersion=4.4-2022-07-23-0e9fedc
endheader
time	/jointset/ground_pelvis/pelvis_tilt/value	/jointset/ground_pelvis/pelvis_tx/value	/jointset/ground_pelvis/pelvis_ty/value	/jointset/hip_l/hip_flexion_l/value	/jointset/hip_l/hip_adduction_l/value	/jointset/hip_l/hip_rotation_l/value	/jointset/back/lumbar_extension/value	/jointset/patellofemoral_l/patellar_flexion_l/value	/jointset/knee_l/knee_flexion_l/value	/jointset/knee_l/knee_adduction_l/value	/jointset/knee_l/knee_rotation_l/value	/jointset/ankle_l/ankle_angle_l/value	/jointset/subtalar_l/subtalar_angle_l/value	/jointset/ground_pelvis/pelvis_tilt/speed	/jointset/ground_pelvis/pelvis_tx/speed	/jointset/ground_pelvis/pelvis_ty/speed	/jointset/hip_l/hip_flexion_l/speed	/jointset/hip_l/hip_adduction_l/speed	/jointset/hip_l/hip_rotation_l/speed	/jointset/back/lumbar_extension/speed	/jointset/patellofemoral_l/patellar_flexion_l/speed	/jointset/knee_l/knee_flexion_l/speed	/jointset/knee_l/knee_adduction_l/speed	/jointset/knee_l/knee_rotation_l/speed	/jointset/ankle_l/ankle_angle_l/speed	/jointset/subtalar_l/subtalar_angle_l/speed	/forceset/tau_hip_flexion_l	/forceset/tau_hip_adduction_l	/forceset/tau_hip_rotation_l	/forceset/tau_knee_flexion_l	/forceset/tau_ankle_angle_l	/forceset/tau_subtalar_angle_l	/forceset/tau_lumbar_extension	lambda_cid13_p0	lambda_cid13_p1	lambda_cid13_p2	lambda_cid13_p3	lambda_cid13_p4	lambda_cid13_p5	lambda_cid14_p0	/jointset/ground_pelvis/pelvis_tilt/accel	/jointset/ground_pelvis/pelvis_tx/accel	/jointset/ground_pelvis/pelvis_ty/accel	/jointset/hip_l/hip_flexion_l/accel	/jointset/hip_l/hip_adduction_l/accel	/jointset/hip_l/hip_rotation_l/accel	/jointset/back/lumbar_extension/accel	/jointset/patellofemoral_l/patellar_flexion_l/accel	/jointset/knee_l/knee_flexion_l/accel	/jointset/knee_l/knee_adduction_l/accel	/jointset/knee_l/knee_rotation_l/accel	/jointset/ankle_l/ankle_angle_l/accel	/jointset/subtalar_l/subtalar_angle_l/accel	gamma_cid13_p0	gamma_cid13_p1	gamma_cid13_p2	gamma_cid13_p3	gamma_cid13_p4	gamma_cid13_p5	gamma_cid14_p0
0.5	-0.09294046263705334	-0.03223426199014361	0.7768201965295917	1.021636398524724	-0.3258121959891312	-0.04737941678211176	-0.7985693357691346	1.076294110582118	1.076294110580821	-0.06644333922320017	-0.1728051373371743	0.2261234901012754	0.04730885313240929	-0.1070108248465483	-0.113314585428938	-0.5425668559463002	1.831608816874021	-0.01681493057353659	0.610935376378013	-0.8221497031188243	2.179188206500813	2.179188206500964	0.2362282236585905	0.002071238674597096	0.6053245206167055	0.2170543398532107	-0.2730911827131254	0.02835954736635795	-0.00743407137024308	-0.2802852478114801	0.06101391958312445	0.03660913886592041	0.330477267440079	-23.94695616930604	-12.27131405393835	2.147331444266878	-10.20759567417684	-697.6235680681957	-66.30959383746962	-3.883006006134267	0.399620549344756	0.7472161607607545	-0.2966660305217438	-1.677289192123497	0.303911708921325	-0.7086601455454122	2.050173535895054	-1.791221121786756	-1.791221121786755	-0.171341496821929	-0.03564760154435001	-0.6215228717182064	0.3258152587919541	-4.501159211527222e-07	9.373347127792278e-08	3.469453316939933e-06	3.597461358346099e-07	-5.256648020138944e-07	2.791814750036321e-07	-4.175463949752947e-07
0.51	-0.09399022147051891	-0.03333006617460421	0.7713809581806318	1.039865751360058	-0.3259664249691704	-0.04130272747626614	-0.8066874682636159	1.097993306922465	1.097993306921251	-0.06409437052372428	-0.1727860554954921	0.2321444045199702	0.04949362101516366	-0.1029060631308333	-0.1058495186294277	-0.5451538492127201	1.81400260284851	-0.01404883227671061	0.6043552131517336	-0.8013848796122051	2.160367042840129	2.160367042840071	0.2335504111186539	0.001737055923941253	0.59878219848373	0.2198533642543022	-0.2800673505869036	0.02885158421869096	-0.007240319076858402	-0.2850961090682193	0.0584753526606045	0.036084065244618	0.3375361200790501	-25.1253691740222	-11.69860322976608	1.898006661185217	-9.730930902428014	-703.4525541235348	-65.90078179929658	-3.253667277613294	0.4210969595802645	0.7457326786035873	-0.2207731276450217	-1.841214393132556	0.2597483469048887	-0.6401767660893775	2.103424184068498	-1.970084135051942	-1.970084135082972	-0.318269129450537	-0.03282621763079112	-0.6819922442048867	0.2496437873224226	-3.902500840131794e-07	7.368696052060728e-08	3.065435023669009e-06	3.093698352887619e-07	-4.578009004790871e-07	3.065786764210684e-07	-3.72626843736223e-07
0.52	-0.09499789409145211	-0.03435130354325626	0.7659196384684193	1.05791125667805	-0.3260936350748629	-0.03529333627369873	-0.8145951950378345	1.119495787596838	1.119495787595708	-0.06177263354904965	-0.1727704200024559	0.23809761464531	0.05170491869323866	-0.09859358233931233	-0.09840122226722713	-0.5469831285968115	1.794839313408331	-0.01141115570620901	0.5974757557286647	-0.7800685590647035	2.13984507330574	2.139845073305473	0.2307818787038617	0.001381968941111086	0.5917836619460281	0.2223602989175688	-0.2870435184607757	0.02934362107097611	-0.007046566783642661	-0.2899069703249926	0.05593678573805775	0.03555899162321487	0.3445949727179452	-26.30280355164762	-11.12819516377808	1.651487021192425	-9.328014037936894	-709.2818017312969	-65.56717520959954	-2.680265186062935	0.4411643645070837	0.743862073297947	-0.1451232540562321	-1.988704275056609	0.2782273636565551	-0.7685189849034072	2.160472944071759	-2.131382296527437	-2.131382296527437	-0.1894854717925509	-0.03982844797899235	-0.7127657526646549	0.267397311226782	-2.933929975195237e-07	3.870442433693399e-09	2.327559812401078e-06	2.190320332731905e-07	-3.538791720613415e-07	2.633882631534838e-07	-2.904305782985197e-07
0.53	-0.09596174809675408	-0.0352983043371746	0.7604438206791937	1.075757902426168	-0.3261946890187376	-0.02935542764116172	-0.8222874655527155	1.14078455633287	1.140784556332264	-0.05947736338067142	-0.1727585304711291	0.24397852374798	0.05394031448804772	-0.09417025992734128	-0.09101697370239897	-0.5480509750937246	1.774263227847767	-0.008819270500747755	0.5900842045635186	-0.758347793961995	2.117613341565894	2.117613341565895	0.2282283922728156	0.001005718776171149	0.5843037637278404	0.2246595915314152	-0.2929442580109708	0.02936822929413109	-0.006742270091124946	-0.2955583013516027	0.05407231262970003	0.03494385735565383	0.3506546381636126	-27.26419958456339	-10.54382543591617	1.388260945616067	-8.817789834628778	-714.836201519311	-65.3543170215823	-2.162572713849126	0.4439373579002246	0.733034984354708	-0.06825708356129434	-2.126083272797333	0.2464387846424693	-0.7279695330778192	2.183540786975977	-2.313319010637648	-2.31331901059701	-0.2948729325895602	-0.03466583209488923	-0.7797531430704514	0.2020813485243877	-2.12793470165048e-07	-1.730083513904637e-07	1.589688323922702e-06	1.164558955723397e-07	-2.618817605571157e-07	1.312083706809745e-07	-2.187448533656371e-07
0.54	-0.09688116464231859	-0.036171996898186	0.7549611960777884	1.093391982803366	-0.3262704701734581	-0.02349213379046653	-0.829761395917857	1.161842157671876	1.161842157671873	-0.05720894661730292	-0.172750031947607	0.2497818036111311	0.05619688043140791	-0.08970609038099224	-0.08373957568584124	-0.5483444910327449	1.752326239237657	-0.006356597869087384	0.5825527993679999	-0.7364005291151094	2.093611593909065	2.093611593909334	0.2254111976885037	0.0007037673575231393	0.5762578140426425	0.2265943286276751	-0.2988449975612666	0.02939283751699599	-0.006437973395498363	-0.3012096323781242	0.05220783952132646	0.0343287230878437	0.3567143036091929	-28.22766619907317	-9.961244231354984	1.127778774244514	-8.36468710183815	-720.4255445047633	-65.19467256035914	-1.700648424643393	0.4493337913839085	0.7224919636430857	0.009742857522192481	-2.260884884965121	0.2523848488969653	-0.7964897909779581	2.205772892907361	-2.485385479924013	-2.485385479924	-0.2422271024452667	-0.02496869872048607	-0.8259760460677784	0.1944862077092407	-1.501810295177503e-07	-4.683390247536997e-07	8.518209542753188e-07	3.394715813924054e-10	-1.830772103189122e-07	-9.942796686932528e-08	-1.58687811544471e-07
